<?xml version="1.0" ?><svg viewBox="0 0 129.88 129.88" xmlns="http://www.w3.org/2000/svg" xmlns:xlink="http://www.w3.org/1999/xlink"><defs><style>.cls-1{fill:url(#linear-gradient);}.cls-2{fill:url(#linear-gradient-2);}.cls-3{fill:#fff;}.cls-4{fill:none;stroke:#fff;stroke-linecap:round;stroke-linejoin:round;stroke-width:4.6px;}</style><linearGradient gradientUnits="userSpaceOnUse" id="linear-gradient" x1="21.05" x2="108.85" y1="89.65" y2="38.96"><stop offset="0.02" stop-color="red"/><stop offset="1" stop-color="#9e005d"/></linearGradient><linearGradient id="linear-gradient-2" x1="41.44" x2="85.59" xlink:href="#linear-gradient" y1="64.3" y2="64.3"/></defs><title/><g data-name="Layer 1" id="Layer_1"><path class="cls-1" d="M86.34,13.61H43.56a13.65,13.65,0,0,0-11.82,6.82L10.35,57.48a13.62,13.62,0,0,0,0,13.64l21.39,37.05A13.65,13.65,0,0,0,43.56,115H86.34a13.64,13.64,0,0,0,11.81-6.82l21.39-37a13.62,13.62,0,0,0,0-13.64l-21.39-37A13.64,13.64,0,0,0,86.34,13.61Z"/><path class="cls-2" d="M78.19,92.5a7.33,7.33,0,0,1-3.69-1,1.83,1.83,0,0,1-.36-.26L59.77,78.69H49.62a8.19,8.19,0,0,1-8.18-8.18V58.09a8.19,8.19,0,0,1,8.18-8.17H59.77L74.14,37.36a2.36,2.36,0,0,1,.36-.26,7.38,7.38,0,0,1,11.09,6.4V85.1A7.41,7.41,0,0,1,78.19,92.5Z"/><path class="cls-3" d="M78.19,38.4a5.1,5.1,0,0,1,5.11,5.1V85.1a5.09,5.09,0,0,1-7.65,4.42l-15-13.13h-11a5.88,5.88,0,0,1-5.88-5.88V58.09a5.88,5.88,0,0,1,5.88-5.88h11l15-13.12a5,5,0,0,1,2.54-.69m0-4.59h0a9.72,9.72,0,0,0-4.83,1.3,4.81,4.81,0,0,0-.73.52l-13.72,12H49.62A10.49,10.49,0,0,0,39.15,58.09V70.51A10.49,10.49,0,0,0,49.62,81h9.29L72.63,93a4.2,4.2,0,0,0,.73.52A9.68,9.68,0,0,0,87.88,85.1V43.5a9.7,9.7,0,0,0-9.69-9.69Z"/><line class="cls-4" x1="51.08" x2="59.03" y1="58.82" y2="58.82"/><line class="cls-4" x1="69.65" x2="75.7" y1="53.42" y2="48.27"/></g></svg>